# xmcd
#
# Track frame offsets: 
#        150
#        8011
#        14516
#        20900
#        27617
#        36142
#        41321
#        52121
#        65229
#        78519
#        88331
#        92561
#        97391
#        101061
#        105131
#        109834
#        112074
#        113364
#        116299
#        119560
#        122542
#        132969
#        139421
#        141496
#        162370
#        171922
#        187488
#        203311
#        219163
#        240180
#        240633
#        243704
#        250258
#
# Disc length: 3874 seconds
#
# Revision: 0
# Processed by: cddbd v1.5.2PL0 Copyright (c) Steve Scherf et al.
# Submitted via: ExactAudioCopy v0.95b3
#
DISCID=dc0f2021
DTITLE=The Beatles  - Complete Home Recordings Home Tapes 6 - 1968-69
DYEAR=1900
DGENRE=
TTITLE0=I've Got A Feeling
TTITLE1=Oh My Love
TTITLE2=Oh My Love
TTITLE3=Nowhere To Go
TTITLE4=I'd Have You Anytime
TTITLE5=I've Got A Feeling
TTITLE6=Goodbye
TTITLE7=A Case Of The Blues
TTITLE8=Don't Let Me Down
TTITLE9=Don't Let Me Down
TTITLE10=Woman Is The Nigger Of The World
TTITLE11=Don't Let Me Down
TTITLE12=Those Were The Days
TTITLE13=I Want You (She's So Heavy)
TTITLE14=I Want You (She's So Heavy)
TTITLE15=Jerusalaim
TTITLE16=Radio Peace
TTITLE17=Because
TTITLE18=Happiness Is A Warm Gun
TTITLE19=Give Peace A Chance
TTITLE20=Give Peace A Chance
TTITLE21=Give Peace A Chance
TTITLE22=Give Peace A Chance
TTITLE23=Oh Yoko
TTITLE24=Can I Have A Ride On Your Donkey
TTITLE25=Cold Turkey
TTITLE26=Cold Turkey
TTITLE27=Cold Turkey
TTITLE28=Excerpts From John's Christmas Tape
TTITLE29=George's Christmas Tape
TTITLE30=Excerpts From Ringo's Christmas
TTITLE31=Excerpts From Paul's Christmas Tape
TTITLE32=Message To Japan
EXTD=
EXTT0=
EXTT1=
EXTT2=
EXTT3=
EXTT4=
EXTT5=
EXTT6=
EXTT7=
EXTT8=
EXTT9=
EXTT10=
EXTT11=
EXTT12=
EXTT13=
EXTT14=
EXTT15=
EXTT16=
EXTT17=
EXTT18=
EXTT19=
EXTT20=
EXTT21=
EXTT22=
EXTT23=
EXTT24=
EXTT25=
EXTT26=
EXTT27=
EXTT28=
EXTT29=
EXTT30=
EXTT31=
EXTT32=
PLAYORDER=
